<!--?xml version="1.0" standalone="yes"?-->
<svg viewBox="0 0 442 304" version="1.1" xmlns="http://www.w3.org/2000/svg">
<polygon id="AC_1" points="17,79.9519052838 24,75.6217782649 32,79.9519052838 32,88.6121593217 24,92.9422863406 17,88.6121593217" fill="#abd9e9"></polygon>
<polygon id="AC_10" points="289,23.9903810568 296,19.6602540378 304,23.9903810568 304,32.6506350946 296,36.9807621135 289,32.6506350946" fill="#abd9e9"></polygon>
<polygon id="AC_100" points="234,205.865334795 241,201.535207776 249,205.865334795 249,214.525588833 241,218.855715851 234,214.525588833" fill="#fdb462"></polygon>
<polygon id="AC_101" points="202,205.865334795 209,201.535207776 217,205.865334795 217,214.525588833 209,218.855715851 202,214.525588833" fill="#fdb462"></polygon>
<polygon id="AC_102" points="225,191.874953738 232,187.544826719 240,191.874953738 240,200.535207776 232,204.865334795 225,200.535207776" fill="#abd9e9"></polygon>
<polygon id="AC_103" points="234,177.884572681 241,173.554445662 249,177.884572681 249,186.544826719 241,190.874953738 234,186.544826719" fill="#fdb462"></polygon>
<polygon id="AC_104" points="250,177.884572681 257,173.554445662 265,177.884572681 265,186.544826719 257,190.874953738 250,186.544826719" fill="#fdb462"></polygon>
<polygon id="AC_105" points="257,191.874953738 264,187.544826719 272,191.874953738 272,200.535207776 264,204.865334795 257,200.535207776" fill="#fdb462"></polygon>
<polygon id="AC_106" points="202,177.884572681 209,173.554445662 217,177.884572681 217,186.544826719 209,190.874953738 202,186.544826719" fill="#fdb462"></polygon>
<polygon id="AC_107" points="209,163.894191624 216,159.564064606 224,163.894191624 224,172.554445662 216,176.884572681 209,172.554445662" fill="#fdb462"></polygon>
<polygon id="AC_108" points="266,149.903810568 273,145.573683549 281,149.903810568 281,158.564064606 273,162.894191624 266,158.564064606" fill="#fdb462"></polygon>
<polygon id="AC_109" points="298,149.903810568 305,145.573683549 313,149.903810568 313,158.564064606 305,162.894191624 298,158.564064606" fill="#abd9e9"></polygon>
<polygon id="AC_11" points="266,37.9807621135 273,33.6506350946 281,37.9807621135 281,46.6410161514 273,50.9711431703 266,46.6410161514" fill="#abd9e9"></polygon>
<polygon id="AC_110" points="321,135.913429511 328,131.583302492 336,135.913429511 336,144.573683549 328,148.903810568 321,144.573683549" fill="#abd9e9"></polygon>
<polygon id="AC_111" points="330,121.923048454 337,117.592921435 345,121.923048454 345,130.583302492 337,134.913429511 330,130.583302492" fill="#666666"></polygon>
<polygon id="AC_112" points="282,149.903810568 289,145.573683549 297,149.903810568 297,158.564064606 289,162.894191624 282,158.564064606" fill="#fdb462"></polygon>
<polygon id="AC_113" points="305,135.913429511 312,131.583302492 320,135.913429511 320,144.573683549 312,148.903810568 305,144.573683549" fill="#abd9e9"></polygon>
<polygon id="AC_114" points="289,135.913429511 296,131.583302492 304,135.913429511 304,144.573683549 296,148.903810568 289,144.573683549" fill="#abd9e9"></polygon>
<polygon id="AC_115" points="282,121.923048454 289,117.592921435 297,121.923048454 297,130.583302492 289,134.913429511 282,130.583302492" fill="#fdb462"></polygon>
<polygon id="AC_116" points="298,121.923048454 305,117.592921435 313,121.923048454 313,130.583302492 305,134.913429511 298,130.583302492" fill="#fdb462"></polygon>
<polygon id="AC_117" points="337,107.932667397 344,103.602540378 352,107.932667397 352,116.592921435 344,120.923048454 337,116.592921435" fill="#abd9e9"></polygon>
<polygon id="AC_118" points="314,121.923048454 321,117.592921435 329,121.923048454 329,130.583302492 321,134.913429511 314,130.583302492" fill="#abd9e9"></polygon>
<polygon id="AC_119" points="346,121.923048454 353,117.592921435 361,121.923048454 361,130.583302492 353,134.913429511 346,130.583302492" fill="#abd9e9"></polygon>
<polygon id="AC_12" points="273,23.9903810568 280,19.6602540378 288,23.9903810568 288,32.6506350946 280,36.9807621135 273,32.6506350946" fill="#abd9e9"></polygon>
<polygon id="AC_120" points="401,107.932667397 408,103.602540378 416,107.932667397 416,116.592921435 408,120.923048454 401,116.592921435" fill="#abd9e9"></polygon>
<polygon id="AC_121" points="410,93.9422863406 417,89.6121593217 425,93.9422863406 425,102.602540378 417,106.932667397 410,102.602540378" fill="#abd9e9"></polygon>
<polygon id="AC_122" points="401,79.9519052838 408,75.6217782649 416,79.9519052838 416,88.6121593217 408,92.9422863406 401,88.6121593217" fill="#abd9e9"></polygon>
<polygon id="AC_123" points="369,79.9519052838 376,75.6217782649 384,79.9519052838 384,88.6121593217 376,92.9422863406 369,88.6121593217" fill="#abd9e9"></polygon>
<polygon id="AC_124" points="417,135.913429511 424,131.583302492 432,135.913429511 432,144.573683549 424,148.903810568 417,144.573683549" fill="#fdb462"></polygon>
<polygon id="AC_125" points="417,107.932667397 424,103.602540378 432,107.932667397 432,116.592921435 424,120.923048454 417,116.592921435" fill="#abd9e9"></polygon>
<polygon id="AC_126" points="362,121.923048454 369,117.592921435 377,121.923048454 377,130.583302492 369,134.913429511 362,130.583302492" fill="#abd9e9"></polygon>
<polygon id="AC_127" points="378,121.923048454 385,117.592921435 393,121.923048454 393,130.583302492 385,134.913429511 378,130.583302492" fill="#fdb462"></polygon>
<polygon id="AC_128" points="353,135.913429511 360,131.583302492 368,135.913429511 368,144.573683549 360,148.903810568 353,144.573683549" fill="#fdb462"></polygon>
<polygon id="AC_129" points="417,79.9519052838 424,75.6217782649 432,79.9519052838 432,88.6121593217 424,92.9422863406 417,88.6121593217" fill="#fdb462"></polygon>
<polygon id="AC_13" points="234,10.0 241,5.66987298108 249,10.0 249,18.6602540378 241,22.9903810568 234,18.6602540378" fill="#fdb462"></polygon>
<polygon id="AC_130" points="401,135.913429511 408,131.583302492 416,135.913429511 416,144.573683549 408,148.903810568 401,144.573683549" fill="#abd9e9"></polygon>
<polygon id="AC_131" points="410,121.923048454 417,117.592921435 425,121.923048454 425,130.583302492 417,134.913429511 410,130.583302492" fill="#fdb462"></polygon>
<polygon id="AC_132" points="417,163.894191624 424,159.564064606 432,163.894191624 432,172.554445662 424,176.884572681 417,172.554445662" fill="#abd9e9"></polygon>
<polygon id="AC_133" points="410,149.903810568 417,145.573683549 425,149.903810568 425,158.564064606 417,162.894191624 410,158.564064606" fill="#abd9e9"></polygon>
<polygon id="AC_134" points="394,121.923048454 401,117.592921435 409,121.923048454 409,130.583302492 401,134.913429511 394,130.583302492" fill="#fdb462"></polygon>
<polygon id="AC_135" points="337,135.913429511 344,131.583302492 352,135.913429511 352,144.573683549 344,148.903810568 337,144.573683549" fill="#666666"></polygon>
<polygon id="AC_136" points="378,149.903810568 385,145.573683549 393,149.903810568 393,158.564064606 385,162.894191624 378,158.564064606" fill="#fdb462"></polygon>
<polygon id="AC_137" points="385,135.913429511 392,131.583302492 400,135.913429511 400,144.573683549 392,148.903810568 385,144.573683549" fill="#abd9e9"></polygon>
<polygon id="AC_138" points="385,163.894191624 392,159.564064606 400,163.894191624 400,172.554445662 392,176.884572681 385,172.554445662" fill="#fdb462"></polygon>
<polygon id="AC_139" points="369,163.894191624 376,159.564064606 384,163.894191624 384,172.554445662 376,176.884572681 369,172.554445662" fill="#abd9e9"></polygon>
<polygon id="AC_14" points="225,23.9903810568 232,19.6602540378 240,23.9903810568 240,32.6506350946 232,36.9807621135 225,32.6506350946" fill="#fdb462"></polygon>
<polygon id="AC_140" points="337,163.894191624 344,159.564064606 352,163.894191624 352,172.554445662 344,176.884572681 337,172.554445662" fill="#fdb462"></polygon>
<polygon id="AC_141" points="362,149.903810568 369,145.573683549 377,149.903810568 377,158.564064606 369,162.894191624 362,158.564064606" fill="#fdb462"></polygon>
<polygon id="AC_142" points="346,149.903810568 353,145.573683549 361,149.903810568 361,158.564064606 353,162.894191624 346,158.564064606" fill="#fdb462"></polygon>
<polygon id="AC_143" points="353,163.894191624 360,159.564064606 368,163.894191624 368,172.554445662 360,176.884572681 353,172.554445662" fill="#fdb462"></polygon>
<polygon id="AC_144" points="330,149.903810568 337,145.573683549 345,149.903810568 345,158.564064606 337,162.894191624 330,158.564064606" fill="#fdb462"></polygon>
<polygon id="AC_145" points="305,163.894191624 312,159.564064606 320,163.894191624 320,172.554445662 312,176.884572681 305,172.554445662" fill="#fdb462"></polygon>
<polygon id="AC_146" points="314,149.903810568 321,145.573683549 329,149.903810568 329,158.564064606 321,162.894191624 314,158.564064606" fill="#fdb462"></polygon>
<polygon id="AC_147" points="321,163.894191624 328,159.564064606 336,163.894191624 336,172.554445662 328,176.884572681 321,172.554445662" fill="#fdb462"></polygon>
<polygon id="AC_148" points="346,177.884572681 353,173.554445662 361,177.884572681 361,186.544826719 353,190.874953738 346,186.544826719" fill="#fdb462"></polygon>
<polygon id="AC_149" points="369,191.874953738 376,187.544826719 384,191.874953738 384,200.535207776 376,204.865334795 369,200.535207776" fill="#fdb462"></polygon>
<polygon id="AC_15" points="218,37.9807621135 225,33.6506350946 233,37.9807621135 233,46.6410161514 225,50.9711431703 218,46.6410161514" fill="#abd9e9"></polygon>
<polygon id="AC_150" points="289,163.894191624 296,159.564064606 304,163.894191624 304,172.554445662 296,176.884572681 289,172.554445662" fill="#fdb462"></polygon>
<polygon id="AC_151" points="298,177.884572681 305,173.554445662 313,177.884572681 313,186.544826719 305,190.874953738 298,186.544826719" fill="#fdb462"></polygon>
<polygon id="AC_152" points="337,191.874953738 344,187.544826719 352,191.874953738 352,200.535207776 344,204.865334795 337,200.535207776" fill="#666666"></polygon>
<polygon id="AC_153" points="321,191.874953738 328,187.544826719 336,191.874953738 336,200.535207776 328,204.865334795 321,200.535207776" fill="#fdb462"></polygon>
<polygon id="AC_154" points="305,191.874953738 312,187.544826719 320,191.874953738 320,200.535207776 312,204.865334795 305,200.535207776" fill="#fdb462"></polygon>
<polygon id="AC_155" points="273,219.855715851 280,215.525588833 288,219.855715851 288,228.515969889 280,232.846096908 273,228.515969889" fill="#fdb462"></polygon>
<polygon id="AC_156" points="330,205.865334795 337,201.535207776 345,205.865334795 345,214.525588833 337,218.855715851 330,214.525588833" fill="#fdb462"></polygon>
<polygon id="AC_157" points="369,219.855715851 376,215.525588833 384,219.855715851 384,228.515969889 376,232.846096908 369,228.515969889" fill="#abd9e9"></polygon>
<polygon id="AC_158" points="298,233.846096908 305,229.515969889 313,233.846096908 313,242.506350946 305,246.836477965 298,242.506350946" fill="#fdb462"></polygon>
<polygon id="AC_159" points="305,247.836477965 312,243.506350946 320,247.836477965 320,256.496732003 312,260.826859022 305,256.496732003" fill="#fdb462"></polygon>
<polygon id="AC_16" points="193,51.9711431703 200,47.6410161514 208,51.9711431703 208,60.6313972081 200,64.9615242271 193,60.6313972081" fill="#fdb462"></polygon>
<polygon id="AC_160" points="298,205.865334795 305,201.535207776 313,205.865334795 313,214.525588833 305,218.855715851 298,214.525588833" fill="#fdb462"></polygon>
<polygon id="AC_161" points="337,219.855715851 344,215.525588833 352,219.855715851 352,228.515969889 344,232.846096908 337,228.515969889" fill="#fdb462"></polygon>
<polygon id="AC_162" points="321,219.855715851 328,215.525588833 336,219.855715851 336,228.515969889 328,232.846096908 321,228.515969889" fill="#fdb462"></polygon>
<polygon id="AC_163" points="298,261.826859022 305,257.496732003 313,261.826859022 313,270.48711306 305,274.817240079 298,270.48711306" fill="#fdb462"></polygon>
<polygon id="AC_164" points="305,219.855715851 312,215.525588833 320,219.855715851 320,228.515969889 312,232.846096908 305,228.515969889" fill="#fdb462"></polygon>
<polygon id="AC_165" points="314,205.865334795 321,201.535207776 329,205.865334795 329,214.525588833 321,218.855715851 314,214.525588833" fill="#fdb462"></polygon>
<polygon id="AC_166" points="282,205.865334795 289,201.535207776 297,205.865334795 297,214.525588833 289,218.855715851 282,214.525588833" fill="#fdb462"></polygon>
<polygon id="AC_167" points="289,219.855715851 296,215.525588833 304,219.855715851 304,228.515969889 296,232.846096908 289,228.515969889" fill="#fdb462"></polygon>
<polygon id="AC_168" points="282,233.846096908 289,229.515969889 297,233.846096908 297,242.506350946 289,246.836477965 282,242.506350946" fill="#fdb462"></polygon>
<polygon id="AC_169" points="353,219.855715851 360,215.525588833 368,219.855715851 368,228.515969889 360,232.846096908 353,228.515969889" fill="#fdb462"></polygon>
<polygon id="AC_17" points="218,65.9615242271 225,61.6313972081 233,65.9615242271 233,74.6217782649 225,78.9519052838 218,74.6217782649" fill="#fdb462"></polygon>
<polygon id="AC_170" points="314,233.846096908 321,229.515969889 329,233.846096908 329,242.506350946 321,246.836477965 314,242.506350946" fill="#fdb462"></polygon>
<polygon id="AC_171" points="330,233.846096908 337,229.515969889 345,233.846096908 345,242.506350946 337,246.836477965 330,242.506350946" fill="#abd9e9"></polygon>
<polygon id="AC_172" points="401,219.855715851 408,215.525588833 416,219.855715851 416,228.515969889 408,232.846096908 401,228.515969889" fill="#fdb462"></polygon>
<polygon id="AC_173" points="369,247.836477965 376,243.506350946 384,247.836477965 384,256.496732003 376,260.826859022 369,256.496732003" fill="#abd9e9"></polygon>
<polygon id="AC_174" points="305,275.817240079 312,271.48711306 320,275.817240079 320,284.477494116 312,288.807621135 305,284.477494116" fill="#fdb462"></polygon>
<polygon id="AC_175" points="289,275.817240079 296,271.48711306 304,275.817240079 304,284.477494116 296,288.807621135 289,284.477494116" fill="#fdb462"></polygon>
<polygon id="AC_176" points="321,247.836477965 328,243.506350946 336,247.836477965 336,256.496732003 328,260.826859022 321,256.496732003" fill="#fdb462"></polygon>
<polygon id="AC_177" points="337,247.836477965 344,243.506350946 352,247.836477965 352,256.496732003 344,260.826859022 337,256.496732003" fill="#abd9e9"></polygon>
<polygon id="AC_178" points="330,261.826859022 337,257.496732003 345,261.826859022 345,270.48711306 337,274.817240079 330,270.48711306" fill="#abd9e9"></polygon>
<polygon id="AC_179" points="282,289.807621135 289,285.477494116 297,289.807621135 297,298.467875173 289,302.798002192 282,298.467875173" fill="#fdb462"></polygon>
<polygon id="AC_18" points="241,51.9711431703 248,47.6410161514 256,51.9711431703 256,60.6313972081 248,64.9615242271 241,60.6313972081" fill="#fdb462"></polygon>
<polygon id="AC_180" points="298,289.807621135 305,285.477494116 313,289.807621135 313,298.467875173 305,302.798002192 298,298.467875173" fill="#fdb462"></polygon>
<polygon id="AC_181" points="321,275.817240079 328,271.48711306 336,275.817240079 336,284.477494116 328,288.807621135 321,284.477494116" fill="#abd9e9"></polygon>
<polygon id="AC_182" points="314,289.807621135 321,285.477494116 329,289.807621135 329,298.467875173 321,302.798002192 314,298.467875173" fill="#fdb462"></polygon>
<polygon id="AC_19" points="250,37.9807621135 257,33.6506350946 265,37.9807621135 265,46.6410161514 257,50.9711431703 250,46.6410161514" fill="#abd9e9"></polygon>
<polygon id="AC_2" points="49,107.932667397 56,103.602540378 64,107.932667397 64,116.592921435 56,120.923048454 49,116.592921435" fill="#fdb462"></polygon>
<polygon id="AC_20" points="282,37.9807621135 289,33.6506350946 297,37.9807621135 297,46.6410161514 289,50.9711431703 282,46.6410161514" fill="#fdb462"></polygon>
<polygon id="AC_21" points="273,51.9711431703 280,47.6410161514 288,51.9711431703 288,60.6313972081 280,64.9615242271 273,60.6313972081" fill="#fdb462"></polygon>
<polygon id="AC_22" points="289,51.9711431703 296,47.6410161514 304,51.9711431703 304,60.6313972081 296,64.9615242271 289,60.6313972081" fill="#fdb462"></polygon>
<polygon id="AC_23" points="250,65.9615242271 257,61.6313972081 265,65.9615242271 265,74.6217782649 257,78.9519052838 250,74.6217782649" fill="#fdb462"></polygon>
<polygon id="AC_24" points="257,79.9519052838 264,75.6217782649 272,79.9519052838 272,88.6121593217 264,92.9422863406 257,88.6121593217" fill="#abd9e9"></polygon>
<polygon id="AC_25" points="266,65.9615242271 273,61.6313972081 281,65.9615242271 281,74.6217782649 273,78.9519052838 266,74.6217782649" fill="#fdb462"></polygon>
<polygon id="AC_26" points="282,65.9615242271 289,61.6313972081 297,65.9615242271 297,74.6217782649 289,78.9519052838 282,74.6217782649" fill="#abd9e9"></polygon>
<polygon id="AC_27" points="314,65.9615242271 321,61.6313972081 329,65.9615242271 329,74.6217782649 321,78.9519052838 314,74.6217782649" fill="#abd9e9"></polygon>
<polygon id="AC_28" points="305,51.9711431703 312,47.6410161514 320,51.9711431703 320,60.6313972081 312,64.9615242271 305,60.6313972081" fill="#fdb462"></polygon>
<polygon id="AC_29" points="321,23.9903810568 328,19.6602540378 336,23.9903810568 336,32.6506350946 328,36.9807621135 321,32.6506350946" fill="#abd9e9"></polygon>
<polygon id="AC_3" points="58,65.9615242271 65,61.6313972081 73,65.9615242271 73,74.6217782649 65,78.9519052838 58,74.6217782649" fill="#fdb462"></polygon>
<polygon id="AC_30" points="330,65.9615242271 337,61.6313972081 345,65.9615242271 345,74.6217782649 337,78.9519052838 330,74.6217782649" fill="#abd9e9"></polygon>
<polygon id="AC_31" points="353,79.9519052838 360,75.6217782649 368,79.9519052838 368,88.6121593217 360,92.9422863406 353,88.6121593217" fill="#abd9e9"></polygon>
<polygon id="AC_32" points="337,79.9519052838 344,75.6217782649 352,79.9519052838 352,88.6121593217 344,92.9422863406 337,88.6121593217" fill="#abd9e9"></polygon>
<polygon id="AC_33" points="305,79.9519052838 312,75.6217782649 320,79.9519052838 320,88.6121593217 312,92.9422863406 305,88.6121593217" fill="#abd9e9"></polygon>
<polygon id="AC_34" points="394,93.9422863406 401,89.6121593217 409,93.9422863406 409,102.602540378 401,106.932667397 394,102.602540378" fill="#abd9e9"></polygon>
<polygon id="AC_35" points="273,79.9519052838 280,75.6217782649 288,79.9519052838 288,88.6121593217 280,92.9422863406 273,88.6121593217" fill="#fdb462"></polygon>
<polygon id="AC_36" points="298,65.9615242271 305,61.6313972081 313,65.9615242271 313,74.6217782649 305,78.9519052838 298,74.6217782649" fill="#fdb462"></polygon>
<polygon id="AC_37" points="289,79.9519052838 296,75.6217782649 304,79.9519052838 304,88.6121593217 296,92.9422863406 289,88.6121593217" fill="#abd9e9"></polygon>
<polygon id="AC_38" points="321,79.9519052838 328,75.6217782649 336,79.9519052838 336,88.6121593217 328,92.9422863406 321,88.6121593217" fill="#abd9e9"></polygon>
<polygon id="AC_39" points="234,93.9422863406 241,89.6121593217 249,93.9422863406 249,102.602540378 241,106.932667397 234,102.602540378" fill="#abd9e9"></polygon>
<polygon id="AC_4" points="74,93.9422863406 81,89.6121593217 89,93.9422863406 89,102.602540378 81,106.932667397 74,102.602540378" fill="#fdb462"></polygon>
<polygon id="AC_40" points="257,107.932667397 264,103.602540378 272,107.932667397 272,116.592921435 264,120.923048454 257,116.592921435" fill="#abd9e9"></polygon>
<polygon id="AC_41" points="282,93.9422863406 289,89.6121593217 297,93.9422863406 297,102.602540378 289,106.932667397 282,102.602540378" fill="#fdb462"></polygon>
<polygon id="AC_42" points="289,107.932667397 296,103.602540378 304,107.932667397 304,116.592921435 296,120.923048454 289,116.592921435" fill="#fdb462"></polygon>
<polygon id="AC_43" points="353,107.932667397 360,103.602540378 368,107.932667397 368,116.592921435 360,120.923048454 353,116.592921435" fill="#fdb462"></polygon>
<polygon id="AC_44" points="305,107.932667397 312,103.602540378 320,107.932667397 320,116.592921435 312,120.923048454 305,116.592921435" fill="#fdb462"></polygon>
<polygon id="AC_45" points="298,93.9422863406 305,89.6121593217 313,93.9422863406 313,102.602540378 305,106.932667397 298,102.602540378" fill="#fdb462"></polygon>
<polygon id="AC_46" points="314,93.9422863406 321,89.6121593217 329,93.9422863406 329,102.602540378 321,106.932667397 314,102.602540378" fill="#fdb462"></polygon>
<polygon id="AC_47" points="330,93.9422863406 337,89.6121593217 345,93.9422863406 345,102.602540378 337,106.932667397 330,102.602540378" fill="#fdb462"></polygon>
<polygon id="AC_48" points="378,93.9422863406 385,89.6121593217 393,93.9422863406 393,102.602540378 385,106.932667397 378,102.602540378" fill="#fdb462"></polygon>
<polygon id="AC_49" points="362,93.9422863406 369,89.6121593217 377,93.9422863406 377,102.602540378 369,106.932667397 362,102.602540378" fill="#fdb462"></polygon>
<polygon id="AC_5" points="113,79.9519052838 120,75.6217782649 128,79.9519052838 128,88.6121593217 120,92.9422863406 113,88.6121593217" fill="#fdb462"></polygon>
<polygon id="AC_50" points="266,121.923048454 273,117.592921435 281,121.923048454 281,130.583302492 273,134.913429511 266,130.583302492" fill="#fdb462"></polygon>
<polygon id="AC_51" points="250,93.9422863406 257,89.6121593217 265,93.9422863406 265,102.602540378 257,106.932667397 250,102.602540378" fill="#abd9e9"></polygon>
<polygon id="AC_52" points="321,107.932667397 328,103.602540378 336,107.932667397 336,116.592921435 328,120.923048454 321,116.592921435" fill="#fdb462"></polygon>
<polygon id="AC_53" points="385,107.932667397 392,103.602540378 400,107.932667397 400,116.592921435 392,120.923048454 385,116.592921435" fill="#fdb462"></polygon>
<polygon id="AC_54" points="273,107.932667397 280,103.602540378 288,107.932667397 288,116.592921435 280,120.923048454 273,116.592921435" fill="#abd9e9"></polygon>
<polygon id="AC_55" points="266,93.9422863406 273,89.6121593217 281,93.9422863406 281,102.602540378 273,106.932667397 266,102.602540378" fill="#fdb462"></polygon>
<polygon id="AC_56" points="346,93.9422863406 353,89.6121593217 361,93.9422863406 361,102.602540378 353,106.932667397 346,102.602540378" fill="#fdb462"></polygon>
<polygon id="AC_57" points="369,107.932667397 376,103.602540378 384,107.932667397 384,116.592921435 376,120.923048454 369,116.592921435" fill="#fdb462"></polygon>
<polygon id="AC_58" points="250,121.923048454 257,117.592921435 265,121.923048454 265,130.583302492 257,134.913429511 250,130.583302492" fill="#fdb462"></polygon>
<polygon id="AC_59" points="234,149.903810568 241,145.573683549 249,149.903810568 249,158.564064606 241,162.894191624 234,158.564064606" fill="#fdb462"></polygon>
<polygon id="AC_6" points="122,65.9615242271 129,61.6313972081 137,65.9615242271 137,74.6217782649 129,78.9519052838 122,74.6217782649" fill="#fdb462"></polygon>
<polygon id="AC_60" points="218,93.9422863406 225,89.6121593217 233,93.9422863406 233,102.602540378 225,106.932667397 218,102.602540378" fill="#fdb462"></polygon>
<polygon id="AC_61" points="209,135.913429511 216,131.583302492 224,135.913429511 224,144.573683549 216,148.903810568 209,144.573683549" fill="#abd9e9"></polygon>
<polygon id="AC_62" points="202,121.923048454 209,117.592921435 217,121.923048454 217,130.583302492 209,134.913429511 202,130.583302492" fill="#fdb462"></polygon>
<polygon id="AC_63" points="177,135.913429511 184,131.583302492 192,135.913429511 192,144.573683549 184,148.903810568 177,144.573683549" fill="#fdb462"></polygon>
<polygon id="AC_64" points="177,107.932667397 184,103.602540378 192,107.932667397 192,116.592921435 184,120.923048454 177,116.592921435" fill="#fdb462"></polygon>
<polygon id="AC_65" points="145,107.932667397 152,103.602540378 160,107.932667397 160,116.592921435 152,120.923048454 145,116.592921435" fill="#fdb462"></polygon>
<polygon id="AC_66" points="138,121.923048454 145,117.592921435 153,121.923048454 153,130.583302492 145,134.913429511 138,130.583302492" fill="#fdb462"></polygon>
<polygon id="AC_67" points="161,135.913429511 168,131.583302492 176,135.913429511 176,144.573683549 168,148.903810568 161,144.573683549" fill="#abd9e9"></polygon>
<polygon id="AC_68" points="138,149.903810568 145,145.573683549 153,149.903810568 153,158.564064606 145,162.894191624 138,158.564064606" fill="#abd9e9"></polygon>
<polygon id="AC_69" points="154,149.903810568 161,145.573683549 169,149.903810568 169,158.564064606 161,162.894191624 154,158.564064606" fill="#fdb462"></polygon>
<polygon id="AC_7" points="193,23.9903810568 200,19.6602540378 208,23.9903810568 208,32.6506350946 200,36.9807621135 193,32.6506350946" fill="#fdb462"></polygon>
<polygon id="AC_70" points="161,163.894191624 168,159.564064606 176,163.894191624 176,172.554445662 168,176.884572681 161,172.554445662" fill="#fdb462"></polygon>
<polygon id="AC_71" points="145,163.894191624 152,159.564064606 160,163.894191624 160,172.554445662 152,176.884572681 145,172.554445662" fill="#fdb462"></polygon>
<polygon id="AC_72" points="177,163.894191624 184,159.564064606 192,163.894191624 192,172.554445662 184,176.884572681 177,172.554445662" fill="#abd9e9"></polygon>
<polygon id="AC_73" points="138,177.884572681 145,173.554445662 153,177.884572681 153,186.544826719 145,190.874953738 138,186.544826719" fill="#fdb462"></polygon>
<polygon id="AC_74" points="122,177.884572681 129,173.554445662 137,177.884572681 137,186.544826719 129,190.874953738 122,186.544826719" fill="#abd9e9"></polygon>
<polygon id="AC_75" points="106,177.884572681 113,173.554445662 121,177.884572681 121,186.544826719 113,190.874953738 106,186.544826719" fill="#abd9e9"></polygon>
<polygon id="AC_76" points="113,135.913429511 120,131.583302492 128,135.913429511 128,144.573683549 120,148.903810568 113,144.573683549" fill="#fdb462"></polygon>
<polygon id="AC_77" points="97,135.913429511 104,131.583302492 112,135.913429511 112,144.573683549 104,148.903810568 97,144.573683549" fill="#abd9e9"></polygon>
<polygon id="AC_78" points="90,149.903810568 97,145.573683549 105,149.903810568 105,158.564064606 97,162.894191624 90,158.564064606" fill="#abd9e9"></polygon>
<polygon id="AC_79" points="81,135.913429511 88,131.583302492 96,135.913429511 96,144.573683549 88,148.903810568 81,144.573683549" fill="#fdb462"></polygon>
<polygon id="AC_8" points="202,10.0 209,5.66987298108 217,10.0 217,18.6602540378 209,22.9903810568 202,18.6602540378" fill="#fdb462"></polygon>
<polygon id="AC_80" points="81,163.894191624 88,159.564064606 96,163.894191624 96,172.554445662 88,176.884572681 81,172.554445662" fill="#fdb462"></polygon>
<polygon id="AC_81" points="65,163.894191624 72,159.564064606 80,163.894191624 80,172.554445662 72,176.884572681 65,172.554445662" fill="#fdb462"></polygon>
<polygon id="AC_82" points="33,163.894191624 40,159.564064606 48,163.894191624 48,172.554445662 40,176.884572681 33,172.554445662" fill="#fdb462"></polygon>
<polygon id="AC_83" points="42,177.884572681 49,173.554445662 57,177.884572681 57,186.544826719 49,190.874953738 42,186.544826719" fill="#fdb462"></polygon>
<polygon id="AC_84" points="81,191.874953738 88,187.544826719 96,191.874953738 96,200.535207776 88,204.865334795 81,200.535207776" fill="#666666"></polygon>
<polygon id="AC_85" points="106,205.865334795 113,201.535207776 121,205.865334795 121,214.525588833 113,218.855715851 106,214.525588833" fill="#abd9e9"></polygon>
<polygon id="AC_86" points="113,191.874953738 120,187.544826719 128,191.874953738 128,200.535207776 120,204.865334795 113,200.535207776" fill="#fdb462"></polygon>
<polygon id="AC_87" points="138,205.865334795 145,201.535207776 153,205.865334795 153,214.525588833 145,218.855715851 138,214.525588833" fill="#666666"></polygon>
<polygon id="AC_88" points="97,219.855715851 104,215.525588833 112,219.855715851 112,228.515969889 104,232.846096908 97,228.515969889" fill="#fdb462"></polygon>
<polygon id="AC_89" points="113,219.855715851 120,215.525588833 128,219.855715851 128,228.515969889 120,232.846096908 113,228.515969889" fill="#fdb462"></polygon>
<polygon id="AC_9" points="250,10.0 257,5.66987298108 265,10.0 265,18.6602540378 257,22.9903810568 250,18.6602540378" fill="#abd9e9"></polygon>
<polygon id="AC_90" points="106,233.846096908 113,229.515969889 121,233.846096908 121,242.506350946 113,246.836477965 106,242.506350946" fill="#abd9e9"></polygon>
<polygon id="AC_91" points="122,233.846096908 129,229.515969889 137,233.846096908 137,242.506350946 129,246.836477965 122,242.506350946" fill="#abd9e9"></polygon>
<polygon id="AC_92" points="145,247.836477965 152,243.506350946 160,247.836477965 160,256.496732003 152,260.826859022 145,256.496732003" fill="#fdb462"></polygon>
<polygon id="AC_93" points="154,233.846096908 161,229.515969889 169,233.846096908 169,242.506350946 161,246.836477965 154,242.506350946" fill="#abd9e9"></polygon>
<polygon id="AC_94" points="161,219.855715851 168,215.525588833 176,219.855715851 176,228.515969889 168,232.846096908 161,228.515969889" fill="#666666"></polygon>
<polygon id="AC_95" points="161,191.874953738 168,187.544826719 176,191.874953738 176,200.535207776 168,204.865334795 161,200.535207776" fill="#abd9e9"></polygon>
<polygon id="AC_96" points="186,177.884572681 193,173.554445662 201,177.884572681 201,186.544826719 193,190.874953738 186,186.544826719" fill="#abd9e9"></polygon>
<polygon id="AC_97" points="186,205.865334795 193,201.535207776 201,205.865334795 201,214.525588833 193,218.855715851 186,214.525588833" fill="#fdb462"></polygon>
<polygon id="AC_98" points="186,233.846096908 193,229.515969889 201,233.846096908 201,242.506350946 193,246.836477965 186,242.506350946" fill="#fdb462"></polygon>
<polygon id="AC_99" points="225,219.855715851 232,215.525588833 240,219.855715851 240,228.515969889 232,232.846096908 225,228.515969889" fill="#fdb462"></polygon>
</svg>
