<svg version="1.1" viewbox="0 0 841.5 582.935" xmlns="http://www.w3.org/2000/svg">
<polygon id="42" points="545,219.855715851 552,215.525588833 560,219.855715851 560,228.515969889 552,232.846096908 545,228.515969889" />
<polygon id="79" points="161,275.817240079 168,271.48711306 176,275.817240079 176,284.477494116 168,288.807621135 161,284.477494116" />
<polygon id="145" points="641,303.798002192 648,299.467875173 656,303.798002192 656,312.45825623 648,316.788383249 641,312.45825623" />
<polygon id="105" points="465,359.759526419 472,355.4293994 480,359.759526419 480,368.419780457 472,372.749907476 465,368.419780457" />
<polygon id="177" points="657,499.663336987 664,495.333209968 672,499.663336987 672,508.323591025 664,512.653718044 657,508.323591025" />
<polygon id="70" points="266,289.807621135 273,285.477494116 281,289.807621135 281,298.467875173 273,302.798002192 266,298.467875173" />
<polygon id="15" points="442,65.9615242271 449,61.6313972081 457,65.9615242271 457,74.6217782649 449,78.9519052838 442,74.6217782649" />
<polygon id="3" points="113,135.913429511 120,131.583302492 128,135.913429511 128,144.573683549 120,148.903810568 113,144.573683549" />
<polygon id="50" points="570,205.865334795 577,201.535207776 585,205.865334795 585,214.525588833 577,218.855715851 570,214.525588833" />
<polygon id="20" points="561,79.9519052838 568,75.6217782649 576,79.9519052838 576,88.6121593217 568,92.9422863406 561,88.6121593217" />
<polygon id="22" points="545,107.932667397 552,103.602540378 560,107.932667397 560,116.592921435 552,120.923048454 545,116.592921435" />
<polygon id="37" points="554,149.903810568 561,145.573683549 569,149.903810568 569,158.564064606 561,162.894191624 554,158.564064606" />
<polygon id="24" points="513,163.894191624 520,159.564064606 528,163.894191624 528,172.554445662 520,176.884572681 513,172.554445662" />
<polygon id="159" points="577,443.70181276 584,439.371685741 592,443.70181276 592,452.362066798 584,456.692193817 577,452.362066798" />
<polygon id="122" points="698,177.884572681 705,173.554445662 713,177.884572681 713,186.544826719 705,190.874953738 698,186.544826719" />
<polygon id="36" points="561,163.894191624 568,159.564064606 576,163.894191624 576,172.554445662 568,176.884572681 561,172.554445662" />
<polygon id="43" points="538,205.865334795 545,201.535207776 553,205.865334795 553,214.525588833 545,218.855715851 538,214.525588833" />
<polygon id="120" points="602,205.865334795 609,201.535207776 617,205.865334795 617,214.525588833 609,218.855715851 602,214.525588833" />
<polygon id="41" points="513,191.874953738 520,187.544826719 528,191.874953738 528,200.535207776 520,204.865334795 513,200.535207776" />
<polygon id="52" points="561,219.855715851 568,215.525588833 576,219.855715851 576,228.515969889 568,232.846096908 561,228.515969889" />
<polygon id="125" points="730,205.865334795 737,201.535207776 745,205.865334795 745,214.525588833 737,218.855715851 730,214.525588833" />
<polygon id="130" points="801,191.874953738 808,187.544826719 816,191.874953738 816,200.535207776 808,204.865334795 801,200.535207776" />
<polygon id="66" points="273,247.836477965 280,243.506350946 288,247.836477965 288,256.496732003 280,260.826859022 273,256.496732003" />
<polygon id="135" points="650,261.826859022 657,257.496732003 665,261.826859022 665,270.48711306 657,274.817240079 650,270.48711306" />
<polygon id="112" points="602,261.826859022 609,257.496732003 617,261.826859022 617,270.48711306 609,274.817240079 602,270.48711306" />
<polygon id="69" points="273,303.798002192 280,299.467875173 288,303.798002192 288,312.45825623 280,316.788383249 273,312.45825623" />
<polygon id="167" points="545,443.70181276 552,439.371685741 560,443.70181276 560,452.362066798 552,456.692193817 545,452.362066798" />
<polygon id="142" points="657,303.798002192 664,299.467875173 672,303.798002192 672,312.45825623 664,316.788383249 657,312.45825623" />
<polygon id="146" points="609,303.798002192 616,299.467875173 624,303.798002192 624,312.45825623 616,316.788383249 609,312.45825623" />
<polygon id="150" points="577,331.778764306 584,327.448637287 592,331.778764306 592,340.439018343 584,344.769145362 577,340.439018343" />
<polygon id="83" points="97,359.759526419 104,355.4293994 112,359.759526419 112,368.419780457 104,372.749907476 97,368.419780457" />
<polygon id="153" points="618,373.749907476 625,369.419780457 633,373.749907476 633,382.410161514 625,386.740288533 618,382.410161514" />
<polygon id="162" points="586,457.692193817 593,453.362066798 601,457.692193817 601,466.352447854 593,470.682574873 586,466.352447854" />
<polygon id="154" points="593,387.740288533 600,383.410161514 608,387.740288533 608,396.400542571 600,400.730669589 593,396.400542571" />
<polygon id="90" points="225,471.682574873 232,467.352447854 240,471.682574873 240,480.342828911 232,484.67295593 225,480.342828911" />
<polygon id="47" points="545,191.874953738 552,187.544826719 560,191.874953738 560,200.535207776 552,204.865334795 545,200.535207776" />
<polygon id="169" points="625,443.70181276 632,439.371685741 640,443.70181276 640,452.362066798 632,456.692193817 625,452.362066798" />
<polygon id="8" points="410,10.0 417,5.66987298108 425,10.0 425,18.6602540378 417,22.9903810568 410,18.6602540378" />
<polygon id="13" points="481,23.9903810568 488,19.6602540378 496,23.9903810568 496,32.6506350946 488,36.9807621135 481,32.6506350946" />
<polygon id="161" points="609,415.721050646 616,411.390923627 624,415.721050646 624,424.381304684 616,428.711431703 609,424.381304684" />
<polygon id="7" points="378,37.9807621135 385,33.6506350946 393,37.9807621135 393,46.6410161514 385,50.9711431703 378,46.6410161514" />
<polygon id="165" points="609,443.70181276 616,439.371685741 624,443.70181276 624,452.362066798 616,456.692193817 609,452.362066798" />
<polygon id="21" points="522,93.9422863406 529,89.6121593217 537,93.9422863406 537,102.602540378 529,106.932667397 522,102.602540378" />
<polygon id="164" points="593,443.70181276 600,439.371685741 608,443.70181276 608,452.362066798 600,456.692193817 593,452.362066798" />
<polygon id="163" points="561,443.70181276 568,439.371685741 576,443.70181276 576,452.362066798 568,456.692193817 561,452.362066798" />
<polygon id="9" points="474,10.0 481,5.66987298108 489,10.0 489,18.6602540378 481,22.9903810568 474,18.6602540378" />
<polygon id="160" points="602,457.692193817 609,453.362066798 617,457.692193817 617,466.352447854 609,470.682574873 602,466.352447854" />
<polygon id="10" points="570,37.9807621135 577,33.6506350946 585,37.9807621135 585,46.6410161514 577,50.9711431703 570,46.6410161514" />
<polygon id="14" points="442,37.9807621135 449,33.6506350946 457,37.9807621135 457,46.6410161514 449,50.9711431703 442,46.6410161514" />
<polygon id="29" points="641,51.9711431703 648,47.6410161514 656,51.9711431703 656,60.6313972081 648,64.9615242271 641,60.6313972081" />
<polygon id="166" points="586,429.711431703 593,425.381304684 601,429.711431703 601,438.371685741 593,442.70181276 586,438.371685741" />
<polygon id="12" points="522,37.9807621135 529,33.6506350946 537,37.9807621135 537,46.6410161514 529,50.9711431703 522,46.6410161514" />
<polygon id="26" points="570,121.923048454 577,117.592921435 585,121.923048454 585,130.583302492 577,134.913429511 570,130.583302492" />
<polygon id="11" points="538,65.9615242271 545,61.6313972081 553,65.9615242271 553,74.6217782649 545,78.9519052838 538,74.6217782649" />
<polygon id="19" points="497,79.9519052838 504,75.6217782649 512,79.9519052838 512,88.6121593217 504,92.9422863406 497,88.6121593217" />
<polygon id="44" points="529,219.855715851 536,215.525588833 544,219.855715851 544,228.515969889 536,232.846096908 529,228.515969889" />
<polygon id="16" points="378,93.9422863406 385,89.6121593217 393,93.9422863406 393,102.602540378 385,106.932667397 378,102.602540378" />
<polygon id="1" points="10,149.903810568 17,145.573683549 25,149.903810568 25,158.564064606 17,162.894191624 10,158.564064606" />
<polygon id="45" points="506,205.865334795 513,201.535207776 521,205.865334795 521,214.525588833 513,218.855715851 506,214.525588833" />
<polygon id="18" points="474,93.9422863406 481,89.6121593217 489,93.9422863406 489,102.602540378 481,106.932667397 474,102.602540378" />
<polygon id="55" points="529,191.874953738 536,187.544826719 544,191.874953738 544,200.535207776 536,204.865334795 529,200.535207776" />
<polygon id="17" points="442,121.923048454 449,117.592921435 457,121.923048454 457,130.583302492 449,134.913429511 442,130.583302492" />
<polygon id="30" points="666,121.923048454 673,117.592921435 681,121.923048454 681,130.583302492 673,134.913429511 666,130.583302492" />
<polygon id="6" points="250,121.923048454 257,117.592921435 265,121.923048454 265,130.583302492 257,134.913429511 250,130.583302492" />
<polygon id="28" points="602,93.9422863406 609,89.6121593217 617,93.9422863406 617,102.602540378 609,106.932667397 602,102.602540378" />
<polygon id="25" points="529,135.913429511 536,131.583302492 544,135.913429511 544,144.573683549 536,148.903810568 529,144.573683549" />
<polygon id="23" points="497,135.913429511 504,131.583302492 512,135.913429511 512,144.573683549 504,148.903810568 497,144.573683549" />
<polygon id="27" points="618,121.923048454 625,117.592921435 633,121.923048454 633,130.583302492 625,134.913429511 618,130.583302492" />
<polygon id="31" points="650,149.903810568 657,145.573683549 665,149.903810568 665,158.564064606 657,162.894191624 650,158.564064606" />
<polygon id="5" points="209,163.894191624 216,159.564064606 224,163.894191624 224,172.554445662 216,176.884572681 209,172.554445662" />
<polygon id="4" points="138,177.884572681 145,173.554445662 153,177.884572681 153,186.544826719 145,190.874953738 138,186.544826719" />
<polygon id="33" points="602,149.903810568 609,145.573683549 617,149.903810568 617,158.564064606 609,162.894191624 602,158.564064606" />
<polygon id="35" points="554,177.884572681 561,173.554445662 569,177.884572681 569,186.544826719 561,190.874953738 554,186.544826719" />
<polygon id="60" points="401,191.874953738 408,187.544826719 416,191.874953738 416,200.535207776 408,204.865334795 401,200.535207776" />
<polygon id="39" points="474,177.884572681 481,173.554445662 489,177.884572681 489,186.544826719 481,190.874953738 474,186.544826719" />
<polygon id="56" points="561,191.874953738 568,187.544826719 576,191.874953738 576,200.535207776 568,204.865334795 561,200.535207776" />
<polygon id="32" points="657,163.894191624 664,159.564064606 672,163.894191624 672,172.554445662 664,176.884572681 657,172.554445662" />
<polygon id="34" points="586,177.884572681 593,173.554445662 601,177.884572681 601,186.544826719 593,190.874953738 586,186.544826719" />
<polygon id="51" points="497,191.874953738 504,187.544826719 512,191.874953738 512,200.535207776 504,204.865334795 497,200.535207776" />
<polygon id="2" points="58,205.865334795 65,201.535207776 73,205.865334795 73,214.525588833 65,218.855715851 58,214.525588833" />
<polygon id="123" points="737,163.894191624 744,159.564064606 752,163.894191624 752,172.554445662 744,176.884572681 737,172.554445662" />
<polygon id="64" points="330,205.865334795 337,201.535207776 345,205.865334795 345,214.525588833 337,218.855715851 330,214.525588833" />
<polygon id="65" points="266,205.865334795 273,201.535207776 281,205.865334795 281,214.525588833 273,218.855715851 266,214.525588833" />
<polygon id="129" points="762,177.884572681 769,173.554445662 777,177.884572681 777,186.544826719 769,190.874953738 762,186.544826719" />
<polygon id="54" points="522,205.865334795 529,201.535207776 537,205.865334795 537,214.525588833 529,218.855715851 522,214.525588833" />
<polygon id="48" points="577,191.874953738 584,187.544826719 592,191.874953738 592,200.535207776 584,204.865334795 577,200.535207776" />
<polygon id="38" points="522,177.884572681 529,173.554445662 537,177.884572681 537,186.544826719 529,190.874953738 522,186.544826719" />
<polygon id="46" points="538,177.884572681 545,173.554445662 553,177.884572681 553,186.544826719 545,190.874953738 538,186.544826719" />
<polygon id="121" points="657,191.874953738 664,187.544826719 672,191.874953738 672,200.535207776 664,204.865334795 657,200.535207776" />
<polygon id="49" points="570,177.884572681 577,173.554445662 585,177.884572681 585,186.544826719 577,190.874953738 570,186.544826719" />
<polygon id="40" points="497,219.855715851 504,215.525588833 512,219.855715851 512,228.515969889 504,232.846096908 497,228.515969889" />
<polygon id="62" points="401,247.836477965 408,243.506350946 416,247.836477965 416,256.496732003 408,260.826859022 401,256.496732003" />
<polygon id="53" points="538,233.846096908 545,229.515969889 553,233.846096908 553,242.506350946 545,246.836477965 538,242.506350946" />
<polygon id="57" points="554,205.865334795 561,201.535207776 569,205.865334795 569,214.525588833 561,218.855715851 554,214.525588833" />
<polygon id="76" points="225,275.817240079 232,271.48711306 240,275.817240079 240,284.477494116 232,288.807621135 225,284.477494116" />
<polygon id="67" points="298,261.826859022 305,257.496732003 313,261.826859022 313,270.48711306 305,274.817240079 298,270.48711306" />
<polygon id="77" points="193,275.817240079 200,271.48711306 208,275.817240079 208,284.477494116 200,288.807621135 193,284.477494116" />
<polygon id="124" points="698,205.865334795 705,201.535207776 713,205.865334795 713,214.525588833 705,218.855715851 698,214.525588833" />
<polygon id="131" points="769,219.855715851 776,215.525588833 784,219.855715851 784,228.515969889 776,232.846096908 769,228.515969889" />
<polygon id="63" points="346,261.826859022 353,257.496732003 361,261.826859022 361,270.48711306 353,274.817240079 346,270.48711306" />
<polygon id="117" points="577,219.855715851 584,215.525588833 592,219.855715851 592,228.515969889 584,232.846096908 577,228.515969889" />
<polygon id="119" points="634,233.846096908 641,229.515969889 649,233.846096908 649,242.506350946 641,246.836477965 634,242.506350946" />
<polygon id="58" points="513,247.836477965 520,243.506350946 528,247.836477965 528,256.496732003 520,260.826859022 513,256.496732003" />
<polygon id="132" points="817,219.855715851 824,215.525588833 832,219.855715851 832,228.515969889 824,232.846096908 817,228.515969889" />
<polygon id="118" points="602,233.846096908 609,229.515969889 617,233.846096908 617,242.506350946 609,246.836477965 602,242.506350946" />
<polygon id="126" points="698,233.846096908 705,229.515969889 713,233.846096908 713,242.506350946 705,246.836477965 698,242.506350946" />
<polygon id="115" points="561,247.836477965 568,243.506350946 576,247.836477965 576,256.496732003 568,260.826859022 561,256.496732003" />
<polygon id="134" points="753,247.836477965 760,243.506350946 768,247.836477965 768,256.496732003 760,260.826859022 753,256.496732003" />
<polygon id="61" points="417,275.817240079 424,271.48711306 432,275.817240079 432,284.477494116 424,288.807621135 417,284.477494116" />
<polygon id="127" points="705,247.836477965 712,243.506350946 720,247.836477965 720,256.496732003 712,260.826859022 705,256.496732003" />
<polygon id="82" points="42,317.788383249 49,313.45825623 57,317.788383249 57,326.448637287 49,330.778764306 42,326.448637287" />
<polygon id="133" points="801,247.836477965 808,243.506350946 816,247.836477965 816,256.496732003 808,260.826859022 801,256.496732003" />
<polygon id="111" points="625,247.836477965 632,243.506350946 640,247.836477965 640,256.496732003 632,260.826859022 625,256.496732003" />
<polygon id="116" points="593,247.836477965 600,243.506350946 608,247.836477965 608,256.496732003 600,260.826859022 593,256.496732003" />
<polygon id="78" points="177,275.817240079 184,271.48711306 192,275.817240079 192,284.477494116 184,288.807621135 177,284.477494116" />
<polygon id="81" points="106,317.788383249 113,313.45825623 121,317.788383249 121,326.448637287 113,330.778764306 106,326.448637287" />
<polygon id="114" points="554,261.826859022 561,257.496732003 569,261.826859022 569,270.48711306 561,274.817240079 554,270.48711306" />
<polygon id="80" points="154,317.788383249 161,313.45825623 169,317.788383249 169,326.448637287 161,330.778764306 154,326.448637287" />
<polygon id="113" points="586,261.826859022 593,257.496732003 601,261.826859022 601,270.48711306 593,274.817240079 586,270.48711306" />
<polygon id="137" points="753,275.817240079 760,271.48711306 768,275.817240079 768,284.477494116 760,288.807621135 753,284.477494116" />
<polygon id="59" points="465,303.798002192 472,299.467875173 480,303.798002192 480,312.45825623 472,316.788383249 465,312.45825623" />
<polygon id="110" points="625,275.817240079 632,271.48711306 640,275.817240079 640,284.477494116 632,288.807621135 625,284.477494116" />
<polygon id="128" points="705,275.817240079 712,271.48711306 720,275.817240079 720,284.477494116 712,288.807621135 705,284.477494116" />
<polygon id="108" points="545,303.798002192 552,299.467875173 560,303.798002192 560,312.45825623 552,316.788383249 545,312.45825623" />
<polygon id="71" points="282,317.788383249 289,313.45825623 297,317.788383249 297,326.448637287 289,330.778764306 282,326.448637287" />
<polygon id="136" points="650,289.807621135 657,285.477494116 665,289.807621135 665,298.467875173 657,302.798002192 650,298.467875173" />
<polygon id="109" points="586,289.807621135 593,285.477494116 601,289.807621135 601,298.467875173 593,302.798002192 586,298.467875173" />
<polygon id="107" points="394,317.788383249 401,313.45825623 409,317.788383249 409,326.448637287 401,330.778764306 394,326.448637287" />
<polygon id="68" points="282,289.807621135 289,285.477494116 297,289.807621135 297,298.467875173 289,302.798002192 282,298.467875173" />
<polygon id="72" points="346,317.788383249 353,313.45825623 361,317.788383249 361,326.448637287 353,330.778764306 346,326.448637287" />
<polygon id="170" points="634,457.692193817 641,453.362066798 649,457.692193817 649,466.352447854 641,470.682574873 634,466.352447854" />
<polygon id="139" points="714,317.788383249 721,313.45825623 729,317.788383249 729,326.448637287 721,330.778764306 714,326.448637287" />
<polygon id="141" points="666,289.807621135 673,285.477494116 681,289.807621135 681,298.467875173 673,302.798002192 666,298.467875173" />
<polygon id="144" points="634,289.807621135 641,285.477494116 649,289.807621135 649,298.467875173 641,302.798002192 634,298.467875173" />
<polygon id="143" points="657,275.817240079 664,271.48711306 672,275.817240079 672,284.477494116 664,288.807621135 657,284.477494116" />
<polygon id="138" points="746,317.788383249 753,313.45825623 761,317.788383249 761,326.448637287 753,330.778764306 746,326.448637287" />
<polygon id="168" points="570,457.692193817 577,453.362066798 585,457.692193817 585,466.352447854 577,470.682574873 570,466.352447854" />
<polygon id="140" points="666,317.788383249 673,313.45825623 681,317.788383249 681,326.448637287 673,330.778764306 666,326.448637287" />
<polygon id="73" points="282,345.769145362 289,341.439018343 297,345.769145362 297,354.4293994 289,358.759526419 282,354.4293994" />
<polygon id="106" points="410,345.769145362 417,341.439018343 425,345.769145362 425,354.4293994 417,358.759526419 410,354.4293994" />
<polygon id="74" points="241,359.759526419 248,355.4293994 256,359.759526419 256,368.419780457 248,372.749907476 241,368.419780457" />
<polygon id="75" points="209,359.759526419 216,355.4293994 224,359.759526419 224,368.419780457 216,372.749907476 209,368.419780457" />
<polygon id="103" points="481,359.759526419 488,355.4293994 496,359.759526419 496,368.419780457 488,372.749907476 481,368.419780457" />
<polygon id="147" points="641,331.778764306 648,327.448637287 656,331.778764306 656,340.439018343 648,344.769145362 641,340.439018343" />
<polygon id="96" points="369,359.759526419 376,355.4293994 384,359.759526419 384,368.419780457 376,372.749907476 369,368.419780457" />
<polygon id="84" points="145,387.740288533 152,383.410161514 160,387.740288533 160,396.400542571 152,400.730669589 145,396.400542571" />
<polygon id="148" points="698,345.769145362 705,341.439018343 713,345.769145362 713,354.4293994 705,358.759526419 698,354.4293994" />
<polygon id="95" points="321,387.740288533 328,383.410161514 336,387.740288533 336,396.400542571 328,400.730669589 321,396.400542571" />
<polygon id="151" points="593,359.759526419 600,355.4293994 608,359.759526419 608,368.419780457 600,372.749907476 593,368.419780457" />
<polygon id="152" points="650,373.749907476 657,369.419780457 665,373.749907476 665,382.410161514 657,386.740288533 650,382.410161514" />
<polygon id="85" points="202,401.730669589 209,397.400542571 217,401.730669589 217,410.390923627 209,414.721050646 202,410.390923627" />
<polygon id="104" points="497,359.759526419 504,355.4293994 512,359.759526419 512,368.419780457 504,372.749907476 497,368.419780457" />
<polygon id="102" points="433,387.740288533 440,383.410161514 448,387.740288533 448,396.400542571 440,400.730669589 433,396.400542571" />
<polygon id="86" points="225,387.740288533 232,383.410161514 240,387.740288533 240,396.400542571 232,400.730669589 225,396.400542571" />
<polygon id="92" points="282,485.67295593 289,481.342828911 297,485.67295593 297,494.333209968 289,498.663336987 282,494.333209968" />
<polygon id="87" points="266,401.730669589 273,397.400542571 281,401.730669589 281,410.390923627 273,414.721050646 266,410.390923627" />
<polygon id="101" points="417,415.721050646 424,411.390923627 432,415.721050646 432,424.381304684 424,428.711431703 417,424.381304684" />
<polygon id="88" points="186,429.711431703 193,425.381304684 201,429.711431703 201,438.371685741 193,442.70181276 186,438.371685741" />
<polygon id="94" points="314,429.711431703 321,425.381304684 329,429.711431703 329,438.371685741 321,442.70181276 314,438.371685741" />
<polygon id="97" points="369,415.721050646 376,411.390923627 384,415.721050646 384,424.381304684 376,428.711431703 369,424.381304684" />
<polygon id="149" points="721,387.740288533 728,383.410161514 736,387.740288533 736,396.400542571 728,400.730669589 721,396.400542571" />
<polygon id="179" points="602,513.653718044 609,509.323591025 617,513.653718044 617,522.313972081 609,526.6440991 602,522.313972081" />
<polygon id="100" points="465,415.721050646 472,411.390923627 480,415.721050646 480,424.381304684 472,428.711431703 465,424.381304684" />
<polygon id="156" points="650,401.730669589 657,397.400542571 665,401.730669589 665,410.390923627 657,414.721050646 650,410.390923627" />
<polygon id="91" points="250,457.692193817 257,453.362066798 265,457.692193817 265,466.352447854 257,470.682574873 250,466.352447854" />
<polygon id="172" points="730,429.711431703 737,425.381304684 745,429.711431703 745,438.371685741 737,442.70181276 730,438.371685741" />
<polygon id="155" points="570,429.711431703 577,425.381304684 585,429.711431703 585,438.371685741 577,442.70181276 570,438.371685741" />
<polygon id="157" points="666,429.711431703 673,425.381304684 681,429.711431703 681,438.371685741 673,442.70181276 666,438.371685741" />
<polygon id="89" points="177,443.70181276 184,439.371685741 192,443.70181276 192,452.362066798 184,456.692193817 177,452.362066798" />
<polygon id="158" points="602,429.711431703 609,425.381304684 617,429.711431703 617,438.371685741 609,442.70181276 602,438.371685741" />
<polygon id="93" points="321,471.682574873 328,467.352447854 336,471.682574873 336,480.342828911 328,484.67295593 321,480.342828911" />
<polygon id="99" points="401,443.70181276 408,439.371685741 416,443.70181276 416,452.362066798 408,456.692193817 401,452.362066798" />
<polygon id="98" points="369,471.682574873 376,467.352447854 384,471.682574873 384,480.342828911 376,484.67295593 369,480.342828911" />
<polygon id="171" points="666,457.692193817 673,453.362066798 681,457.692193817 681,466.352447854 673,470.682574873 666,466.352447854" />
<polygon id="174" points="593,471.682574873 600,467.352447854 608,471.682574873 608,480.342828911 600,484.67295593 593,480.342828911" />
<polygon id="175" points="602,485.67295593 609,481.342828911 617,485.67295593 617,494.333209968 609,498.663336987 602,494.333209968" />
<polygon id="173" points="714,485.67295593 721,481.342828911 729,485.67295593 729,494.333209968 721,498.663336987 714,494.333209968" />
<polygon id="176" points="625,499.663336987 632,495.333209968 640,499.663336987 640,508.323591025 632,512.653718044 625,508.323591025" />
<polygon id="178" points="657,527.6440991 664,523.313972081 672,527.6440991 672,536.304353138 664,540.634480157 657,536.304353138" />
<polygon id="180" points="602,541.634480157 609,537.304353138 617,541.634480157 617,550.294734195 609,554.624861214 602,550.294734195" />
<polygon id="181" points="641,555.624861214 648,551.294734195 656,555.624861214 656,564.285115252 648,568.615242271 641,564.285115252" />
<polygon id="182" points="586,569.615242271 593,565.285115252 601,569.615242271 601,578.275496309 593,582.605623327 586,578.275496309" />
</svg>
