<svg version="1.1" viewbox="0 0 201.5 163.235" xmlns="http://www.w3.org/2000/svg">
<polygon id="1" points="129,23.9903810568 136,19.6602540378 144,23.9903810568 144,32.6506350946 136,36.9807621135 129,32.6506350946" />
<polygon id="2" points="42,10.0 49,5.66987298108 57,10.0 57,18.6602540378 49,22.9903810568 42,18.6602540378" />
<polygon id="3" points="10,10.0 17,5.66987298108 25,10.0 25,18.6602540378 17,22.9903810568 10,18.6602540378" />
<polygon id="4" points="33,23.9903810568 40,19.6602540378 48,23.9903810568 48,32.6506350946 40,36.9807621135 33,32.6506350946" />
<polygon id="5" points="42,37.9807621135 49,33.6506350946 57,37.9807621135 57,46.6410161514 49,50.9711431703 42,46.6410161514" />
<polygon id="6" points="26,37.9807621135 33,33.6506350946 41,37.9807621135 41,46.6410161514 33,50.9711431703 26,46.6410161514" />
<polygon id="7" points="74,37.9807621135 81,33.6506350946 89,37.9807621135 89,46.6410161514 81,50.9711431703 74,46.6410161514" />
<polygon id="8" points="10,37.9807621135 17,33.6506350946 25,37.9807621135 25,46.6410161514 17,50.9711431703 10,46.6410161514" />
<polygon id="9" points="49,23.9903810568 56,19.6602540378 64,23.9903810568 64,32.6506350946 56,36.9807621135 49,32.6506350946" />
<polygon id="10" points="90,37.9807621135 97,33.6506350946 105,37.9807621135 105,46.6410161514 97,50.9711431703 90,46.6410161514" />
<polygon id="11" points="65,23.9903810568 72,19.6602540378 80,23.9903810568 80,32.6506350946 72,36.9807621135 65,32.6506350946" />
<polygon id="12" points="17,51.9711431703 24,47.6410161514 32,51.9711431703 32,60.6313972081 24,64.9615242271 17,60.6313972081" />
<polygon id="13" points="33,51.9711431703 40,47.6410161514 48,51.9711431703 48,60.6313972081 40,64.9615242271 33,60.6313972081" />
<polygon id="14" points="10,65.9615242271 17,61.6313972081 25,65.9615242271 25,74.6217782649 17,78.9519052838 10,74.6217782649" />
<polygon id="15" points="58,37.9807621135 65,33.6506350946 73,37.9807621135 73,46.6410161514 65,50.9711431703 58,46.6410161514" />
<polygon id="16" points="145,51.9711431703 152,47.6410161514 160,51.9711431703 160,60.6313972081 152,64.9615242271 145,60.6313972081" />
<polygon id="17" points="81,51.9711431703 88,47.6410161514 96,51.9711431703 96,60.6313972081 88,64.9615242271 81,60.6313972081" />
<polygon id="18" points="49,51.9711431703 56,47.6410161514 64,51.9711431703 64,60.6313972081 56,64.9615242271 49,60.6313972081" />
<polygon id="19" points="17,79.9519052838 24,75.6217782649 32,79.9519052838 32,88.6121593217 24,92.9422863406 17,88.6121593217" />
<polygon id="20" points="65,51.9711431703 72,47.6410161514 80,51.9711431703 80,60.6313972081 72,64.9615242271 65,60.6313972081" />
<polygon id="21" points="58,65.9615242271 65,61.6313972081 73,65.9615242271 73,74.6217782649 65,78.9519052838 58,74.6217782649" />
<polygon id="22" points="106,65.9615242271 113,61.6313972081 121,65.9615242271 121,74.6217782649 113,78.9519052838 106,74.6217782649" />
<polygon id="23" points="113,51.9711431703 120,47.6410161514 128,51.9711431703 128,60.6313972081 120,64.9615242271 113,60.6313972081" />
<polygon id="24" points="177,79.9519052838 184,75.6217782649 192,79.9519052838 192,88.6121593217 184,92.9422863406 177,88.6121593217" />
<polygon id="25" points="26,65.9615242271 33,61.6313972081 41,65.9615242271 41,74.6217782649 33,78.9519052838 26,74.6217782649" />
<polygon id="26" points="42,65.9615242271 49,61.6313972081 57,65.9615242271 57,74.6217782649 49,78.9519052838 42,74.6217782649" />
<polygon id="27" points="138,65.9615242271 145,61.6313972081 153,65.9615242271 153,74.6217782649 145,78.9519052838 138,74.6217782649" />
<polygon id="28" points="97,51.9711431703 104,47.6410161514 112,51.9711431703 112,60.6313972081 104,64.9615242271 97,60.6313972081" />
<polygon id="29" points="33,79.9519052838 40,75.6217782649 48,79.9519052838 48,88.6121593217 40,92.9422863406 33,88.6121593217" />
<polygon id="30" points="10,93.9422863406 17,89.6121593217 25,93.9422863406 25,102.602540378 17,106.932667397 10,102.602540378" />
<polygon id="31" points="90,65.9615242271 97,61.6313972081 105,65.9615242271 105,74.6217782649 97,78.9519052838 90,74.6217782649" />
<polygon id="32" points="74,65.9615242271 81,61.6313972081 89,65.9615242271 89,74.6217782649 81,78.9519052838 74,74.6217782649" />
<polygon id="33" points="42,93.9422863406 49,89.6121593217 57,93.9422863406 57,102.602540378 49,106.932667397 42,102.602540378" />
<polygon id="34" points="49,107.932667397 56,103.602540378 64,107.932667397 64,116.592921435 56,120.923048454 49,116.592921435" />
<polygon id="35" points="65,107.932667397 72,103.602540378 80,107.932667397 80,116.592921435 72,120.923048454 65,116.592921435" />
<polygon id="36" points="58,93.9422863406 65,89.6121593217 73,93.9422863406 73,102.602540378 65,106.932667397 58,102.602540378" />
<polygon id="37" points="42,121.923048454 49,117.592921435 57,121.923048454 57,130.583302492 49,134.913429511 42,130.583302492" />
<polygon id="38" points="113,79.9519052838 120,75.6217782649 128,79.9519052838 128,88.6121593217 120,92.9422863406 113,88.6121593217" />
<polygon id="39" points="97,79.9519052838 104,75.6217782649 112,79.9519052838 112,88.6121593217 104,92.9422863406 97,88.6121593217" />
<polygon id="40" points="122,93.9422863406 129,89.6121593217 137,93.9422863406 137,102.602540378 129,106.932667397 122,102.602540378" />
<polygon id="41" points="49,79.9519052838 56,75.6217782649 64,79.9519052838 64,88.6121593217 56,92.9422863406 49,88.6121593217" />
<polygon id="42" points="81,79.9519052838 88,75.6217782649 96,79.9519052838 96,88.6121593217 88,92.9422863406 81,88.6121593217" />
<polygon id="43" points="129,79.9519052838 136,75.6217782649 144,79.9519052838 144,88.6121593217 136,92.9422863406 129,88.6121593217" />
<polygon id="44" points="65,79.9519052838 72,75.6217782649 80,79.9519052838 80,88.6121593217 72,92.9422863406 65,88.6121593217" />
<polygon id="45" points="26,93.9422863406 33,89.6121593217 41,93.9422863406 41,102.602540378 33,106.932667397 26,102.602540378" />
<polygon id="46" points="74,93.9422863406 81,89.6121593217 89,93.9422863406 89,102.602540378 81,106.932667397 74,102.602540378" />
<polygon id="47" points="65,135.913429511 72,131.583302492 80,135.913429511 80,144.573683549 72,148.903810568 65,144.573683549" />
<polygon id="48" points="49,135.913429511 56,131.583302492 64,135.913429511 64,144.573683549 56,148.903810568 49,144.573683549" />
<polygon id="49" points="74,149.903810568 81,145.573683549 89,149.903810568 89,158.564064606 81,162.894191624 74,158.564064606" />
<polygon id="50" points="58,121.923048454 65,117.592921435 73,121.923048454 73,130.583302492 65,134.913429511 58,130.583302492" />
<polygon id="51" points="90,93.9422863406 97,89.6121593217 105,93.9422863406 105,102.602540378 97,106.932667397 90,102.602540378" />
<polygon id="52" points="138,93.9422863406 145,89.6121593217 153,93.9422863406 153,102.602540378 145,106.932667397 138,102.602540378" />
<polygon id="53" points="81,107.932667397 88,103.602540378 96,107.932667397 96,116.592921435 88,120.923048454 81,116.592921435" />
<polygon id="54" points="113,107.932667397 120,103.602540378 128,107.932667397 128,116.592921435 120,120.923048454 113,116.592921435" />
<polygon id="55" points="97,135.913429511 104,131.583302492 112,135.913429511 112,144.573683549 104,148.903810568 97,144.573683549" />
<polygon id="56" points="58,149.903810568 65,145.573683549 73,149.903810568 73,158.564064606 65,162.894191624 58,158.564064606" />
<polygon id="57" points="129,107.932667397 136,103.602540378 144,107.932667397 144,116.592921435 136,120.923048454 129,116.592921435" />
<polygon id="58" points="106,93.9422863406 113,89.6121593217 121,93.9422863406 121,102.602540378 113,106.932667397 106,102.602540378" />
<polygon id="59" points="97,107.932667397 104,103.602540378 112,107.932667397 112,116.592921435 104,120.923048454 97,116.592921435" />
<polygon id="60" points="106,149.903810568 113,145.573683549 121,149.903810568 121,158.564064606 113,162.894191624 106,158.564064606" />
<polygon id="61" points="106,121.923048454 113,117.592921435 121,121.923048454 121,130.583302492 113,134.913429511 106,130.583302492" />
<polygon id="62" points="74,121.923048454 81,117.592921435 89,121.923048454 89,130.583302492 81,134.913429511 74,130.583302492" />
<polygon id="63" points="81,135.913429511 88,131.583302492 96,135.913429511 96,144.573683549 88,148.903810568 81,144.573683549" />
<polygon id="64" points="90,121.923048454 97,117.592921435 105,121.923048454 105,130.583302492 97,134.913429511 90,130.583302492" />
<polygon id="65" points="113,135.913429511 120,131.583302492 128,135.913429511 128,144.573683549 120,148.903810568 113,144.573683549" />
<polygon id="66" points="129,135.913429511 136,131.583302492 144,135.913429511 144,144.573683549 136,148.903810568 129,144.573683549" />
<polygon id="67" points="90,149.903810568 97,145.573683549 105,149.903810568 105,158.564064606 97,162.894191624 90,158.564064606" />
<polygon id="68" points="122,149.903810568 129,145.573683549 137,149.903810568 137,158.564064606 129,162.894191624 122,158.564064606" />
</svg>
