<svg version="1.1" viewbox="0 0 281.5 233.185" xmlns="http://www.w3.org/2000/svg">
<polygon id="1" points="170,37.9807621135 177,33.6506350946 185,37.9807621135 185,46.6410161514 177,50.9711431703 170,46.6410161514" />
<polygon id="2" points="58,10.0 65,5.66987298108 73,10.0 73,18.6602540378 65,22.9903810568 58,18.6602540378" />
<polygon id="3" points="33,23.9903810568 40,19.6602540378 48,23.9903810568 48,32.6506350946 40,36.9807621135 33,32.6506350946" />
<polygon id="4" points="42,37.9807621135 49,33.6506350946 57,37.9807621135 57,46.6410161514 49,50.9711431703 42,46.6410161514" />
<polygon id="5" points="81,51.9711431703 88,47.6410161514 96,51.9711431703 96,60.6313972081 88,64.9615242271 81,60.6313972081" />
<polygon id="6" points="33,51.9711431703 40,47.6410161514 48,51.9711431703 48,60.6313972081 40,64.9615242271 33,60.6313972081" />
<polygon id="7" points="106,65.9615242271 113,61.6313972081 121,65.9615242271 121,74.6217782649 113,78.9519052838 106,74.6217782649" />
<polygon id="8" points="17,51.9711431703 24,47.6410161514 32,51.9711431703 32,60.6313972081 24,64.9615242271 17,60.6313972081" />
<polygon id="9" points="42,65.9615242271 49,61.6313972081 57,65.9615242271 57,74.6217782649 49,78.9519052838 42,74.6217782649" />
<polygon id="10" points="138,65.9615242271 145,61.6313972081 153,65.9615242271 153,74.6217782649 145,78.9519052838 138,74.6217782649" />
<polygon id="11" points="58,65.9615242271 65,61.6313972081 73,65.9615242271 73,74.6217782649 65,78.9519052838 58,74.6217782649" />
<polygon id="12" points="10,65.9615242271 17,61.6313972081 25,65.9615242271 25,74.6217782649 17,78.9519052838 10,74.6217782649" />
<polygon id="13" points="26,65.9615242271 33,61.6313972081 41,65.9615242271 41,74.6217782649 33,78.9519052838 26,74.6217782649" />
<polygon id="14" points="17,79.9519052838 24,75.6217782649 32,79.9519052838 32,88.6121593217 24,92.9422863406 17,88.6121593217" />
<polygon id="15" points="74,65.9615242271 81,61.6313972081 89,65.9615242271 89,74.6217782649 81,78.9519052838 74,74.6217782649" />
<polygon id="16" points="161,79.9519052838 168,75.6217782649 176,79.9519052838 176,88.6121593217 168,92.9422863406 161,88.6121593217" />
<polygon id="17" points="65,79.9519052838 72,75.6217782649 80,79.9519052838 80,88.6121593217 72,92.9422863406 65,88.6121593217" />
<polygon id="18" points="33,79.9519052838 40,75.6217782649 48,79.9519052838 48,88.6121593217 40,92.9422863406 33,88.6121593217" />
<polygon id="19" points="49,79.9519052838 56,75.6217782649 64,79.9519052838 64,88.6121593217 56,92.9422863406 49,88.6121593217" />
<polygon id="20" points="81,79.9519052838 88,75.6217782649 96,79.9519052838 96,88.6121593217 88,92.9422863406 81,88.6121593217" />
<polygon id="21" points="74,93.9422863406 81,89.6121593217 89,93.9422863406 89,102.602540378 81,106.932667397 74,102.602540378" />
<polygon id="22" points="122,93.9422863406 129,89.6121593217 137,93.9422863406 137,102.602540378 129,106.932667397 122,102.602540378" />
<polygon id="23" points="90,93.9422863406 97,89.6121593217 105,93.9422863406 105,102.602540378 97,106.932667397 90,102.602540378" />
<polygon id="24" points="250,121.923048454 257,117.592921435 265,121.923048454 265,130.583302492 257,134.913429511 250,130.583302492" />
<polygon id="25" points="42,93.9422863406 49,89.6121593217 57,93.9422863406 57,102.602540378 49,106.932667397 42,102.602540378" />
<polygon id="26" points="58,93.9422863406 65,89.6121593217 73,93.9422863406 73,102.602540378 65,106.932667397 58,102.602540378" />
<polygon id="27" points="177,107.932667397 184,103.602540378 192,107.932667397 192,116.592921435 184,120.923048454 177,116.592921435" />
<polygon id="28" points="81,107.932667397 88,103.602540378 96,107.932667397 96,116.592921435 88,120.923048454 81,116.592921435" />
<polygon id="29" points="49,107.932667397 56,103.602540378 64,107.932667397 64,116.592921435 56,120.923048454 49,116.592921435" />
<polygon id="30" points="33,107.932667397 40,103.602540378 48,107.932667397 48,116.592921435 40,120.923048454 33,116.592921435" />
<polygon id="31" points="97,107.932667397 104,103.602540378 112,107.932667397 112,116.592921435 104,120.923048454 97,116.592921435" />
<polygon id="32" points="129,107.932667397 136,103.602540378 144,107.932667397 144,116.592921435 136,120.923048454 129,116.592921435" />
<polygon id="33" points="65,107.932667397 72,103.602540378 80,107.932667397 80,116.592921435 72,120.923048454 65,116.592921435" />
<polygon id="34" points="74,121.923048454 81,117.592921435 89,121.923048454 89,130.583302492 81,134.913429511 74,130.583302492" />
<polygon id="35" points="113,107.932667397 120,103.602540378 128,107.932667397 128,116.592921435 120,120.923048454 113,116.592921435" />
<polygon id="36" points="106,93.9422863406 113,89.6121593217 121,93.9422863406 121,102.602540378 113,106.932667397 106,102.602540378" />
<polygon id="37" points="58,121.923048454 65,117.592921435 73,121.923048454 73,130.583302492 65,134.913429511 58,130.583302492" />
<polygon id="38" points="138,121.923048454 145,117.592921435 153,121.923048454 153,130.583302492 145,134.913429511 138,130.583302492" />
<polygon id="39" points="106,121.923048454 113,117.592921435 121,121.923048454 121,130.583302492 113,134.913429511 106,130.583302492" />
<polygon id="40" points="193,135.913429511 200,131.583302492 208,135.913429511 208,144.573683549 200,148.903810568 193,144.573683549" />
<polygon id="41" points="81,135.913429511 88,131.583302492 96,135.913429511 96,144.573683549 88,148.903810568 81,144.573683549" />
<polygon id="42" points="122,121.923048454 129,117.592921435 137,121.923048454 137,130.583302492 129,134.913429511 122,130.583302492" />
<polygon id="43" points="154,121.923048454 161,117.592921435 169,121.923048454 169,130.583302492 161,134.913429511 154,130.583302492" />
<polygon id="44" points="90,121.923048454 97,117.592921435 105,121.923048454 105,130.583302492 97,134.913429511 90,130.583302492" />
<polygon id="45" points="49,135.913429511 56,131.583302492 64,135.913429511 64,144.573683549 56,148.903810568 49,144.573683549" />
<polygon id="46" points="113,135.913429511 120,131.583302492 128,135.913429511 128,144.573683549 120,148.903810568 113,144.573683549" />
<polygon id="47" points="97,135.913429511 104,131.583302492 112,135.913429511 112,144.573683549 104,148.903810568 97,144.573683549" />
<polygon id="48" points="65,135.913429511 72,131.583302492 80,135.913429511 80,144.573683549 72,148.903810568 65,144.573683549" />
<polygon id="49" points="74,149.903810568 81,145.573683549 89,149.903810568 89,158.564064606 81,162.894191624 74,158.564064606" />
<polygon id="50" points="90,149.903810568 97,145.573683549 105,149.903810568 105,158.564064606 97,162.894191624 90,158.564064606" />
<polygon id="51" points="145,135.913429511 152,131.583302492 160,135.913429511 160,144.573683549 152,148.903810568 145,144.573683549" />
<polygon id="52" points="202,149.903810568 209,145.573683549 217,149.903810568 217,158.564064606 209,162.894191624 202,158.564064606" />
<polygon id="53" points="106,149.903810568 113,145.573683549 121,149.903810568 121,158.564064606 113,162.894191624 106,158.564064606" />
<polygon id="54" points="154,149.903810568 161,145.573683549 169,149.903810568 169,158.564064606 161,162.894191624 154,158.564064606" />
<polygon id="55" points="122,149.903810568 129,145.573683549 137,149.903810568 137,158.564064606 129,162.894191624 122,158.564064606" />
<polygon id="56" points="97,163.894191624 104,159.564064606 112,163.894191624 112,172.554445662 104,176.884572681 97,172.554445662" />
<polygon id="57" points="177,163.894191624 184,159.564064606 192,163.894191624 192,172.554445662 184,176.884572681 177,172.554445662" />
<polygon id="58" points="145,163.894191624 152,159.564064606 160,163.894191624 160,172.554445662 152,176.884572681 145,172.554445662" />
<polygon id="59" points="129,163.894191624 136,159.564064606 144,163.894191624 144,172.554445662 136,176.884572681 129,172.554445662" />
<polygon id="60" points="122,177.884572681 129,173.554445662 137,177.884572681 137,186.544826719 129,190.874953738 122,186.544826719" />
<polygon id="61" points="170,177.884572681 177,173.554445662 185,177.884572681 185,186.544826719 177,190.874953738 170,186.544826719" />
<polygon id="62" points="106,177.884572681 113,173.554445662 121,177.884572681 121,186.544826719 113,190.874953738 106,186.544826719" />
<polygon id="63" points="145,191.874953738 152,187.544826719 160,191.874953738 160,200.535207776 152,204.865334795 145,200.535207776" />
<polygon id="64" points="138,177.884572681 145,173.554445662 153,177.884572681 153,186.544826719 145,190.874953738 138,186.544826719" />
<polygon id="65" points="161,191.874953738 168,187.544826719 176,191.874953738 176,200.535207776 168,204.865334795 161,200.535207776" />
<polygon id="66" points="177,191.874953738 184,187.544826719 192,191.874953738 192,200.535207776 184,204.865334795 177,200.535207776" />
<polygon id="67" points="138,205.865334795 145,201.535207776 153,205.865334795 153,214.525588833 145,218.855715851 138,214.525588833" />
<polygon id="68" points="177,219.855715851 184,215.525588833 192,219.855715851 192,228.515969889 184,232.846096908 177,228.515969889" />
</svg>
